<?xml version="1.0" standalone="no"?>
<!DOCTYPE svg PUBLIC "-//W3C//DTD SVG 20010904//EN"
 "http://www.w3.org/TR/2001/REC-SVG-20010904/DTD/svg10.dtd">
<svg version="1.0" xmlns="http://www.w3.org/2000/svg"
 width="700.000000pt" height="700.000000pt" viewBox="0 0 700.000000 700.000000"
 preserveAspectRatio="xMidYMid meet">
<metadata>
Created by potrace 1.14, written by Peter Selinger 2001-2017
</metadata>
<g transform="translate(0.000000,700.000000) scale(0.100000,-0.100000)"
fill="#000000" stroke="none">
<path d="M1999 6126 l-1504 -874 0 -1752 0 -1752 1290 -749 c710 -413 1386
-806 1504 -874 l215 -125 1505 874 1506 875 0 1751 0 1751 -1455 845 c-800
465 -1478 858 -1506 874 l-51 29 -1504 -873z m1797 -1314 c271 -69 461 -176
649 -366 195 -197 306 -400 363 -666 l19 -85 386 -3 387 -2 0 -190 0 -190
-386 -2 -387 -3 -17 -85 c-34 -163 -98 -318 -196 -467 -69 -108 -248 -289
-354 -360 -147 -98 -320 -172 -490 -209 -119 -26 -410 -27 -527 -1 -486 105
-857 436 -1012 904 -42 126 -61 255 -61 412 0 376 129 690 390 951 199 199
438 324 715 375 119 21 413 14 521 -13z"/>
</g>
</svg>
