<svg width="314" height="60" viewBox="0 0 314 60" fill="none" xmlns="http://www.w3.org/2000/svg">
<g clip-path="url(#clip0_101_3)">
<path d="M227.72 40.45L230.04 36.92C232.58 38.77 235.11 39.71 237.48 39.71C239.72 39.71 241.01 38.76 241.01 37.26V37.17C241.01 35.45 238.6 34.81 235.94 33.99C232.63 33.09 228.85 31.67 228.85 27.37V27.28C228.85 22.94 232.42 20.31 236.93 20.31C239.81 20.31 242.86 21.3 245.27 22.89L243.21 26.59C241.02 25.26 238.69 24.44 236.8 24.44C234.78 24.44 233.62 25.43 233.62 26.68V26.77C233.62 28.4 236.07 29.18 238.74 29.99C242.01 31.02 245.79 32.53 245.79 36.61V36.7C245.79 41.47 242.09 43.84 237.36 43.84C234.09 43.84 230.61 42.72 227.73 40.44L227.72 40.45Z" fill="currentColor"/>
<path d="M249.86 36.88V36.79C249.86 31.85 253.73 29.48 259.28 29.48C261.86 29.48 263.62 29.87 265.39 30.43V29.87C265.39 26.6 263.41 24.93 259.76 24.93C257.18 24.93 255.33 25.49 253.27 26.35L251.85 22.27C254.39 21.19 256.84 20.42 260.45 20.42C263.85 20.42 266.34 21.28 267.98 22.96C269.66 24.64 270.43 27 270.43 29.97V43.43H265.36V40.59C263.81 42.44 261.45 43.9 257.96 43.9C253.7 43.9 249.88 41.49 249.88 36.89L249.86 36.88ZM265.47 35.25V33.7C264.14 33.18 262.37 32.8 260.31 32.8C256.91 32.8 254.98 34.18 254.98 36.58V36.67C254.98 38.86 256.87 40.11 259.41 40.11C262.85 40.11 265.47 38.17 265.47 35.25V35.25Z" fill="currentColor"/>
<path d="M278.11 25.18H275.23V20.84H278.11V19.16C278.11 16.67 278.71 14.82 279.96 13.57C281.17 12.37 282.84 11.76 285.03 11.76C286.88 11.76 288.13 12.02 289.29 12.36V16.75C288.26 16.41 287.4 16.19 286.24 16.19C284.22 16.19 283.23 17.35 283.23 19.63V20.88H289.25V25.18H283.32V43.41H278.12V25.18H278.11Z" fill="currentColor"/>
<path d="M291.74 32.15V32.06C291.74 25.52 296.34 20.23 302.83 20.23C310.05 20.23 313.71 25.91 313.71 32.44C313.71 32.91 313.67 33.39 313.62 33.9H296.94C297.5 37.64 300.08 39.66 303.48 39.66C306.06 39.66 307.78 38.71 309.63 36.95L312.68 39.66C310.49 42.24 307.56 43.92 303.39 43.92C296.85 43.92 291.74 39.15 291.74 32.14V32.15ZM308.55 30.47C308.21 27.16 306.23 24.49 302.79 24.49C299.56 24.49 297.37 26.9 296.9 30.47H308.55Z" fill="currentColor"/>
<path d="M100.06 25.51V20.3H94.75V43.42H100.06V34.62C100.06 28.49 103.28 25.47 107.9 25.47H108.2V19.87C104.15 19.7 101.5 22.06 100.06 25.52V25.51ZM123 19.83C115.95 19.83 110.72 25.3 110.72 31.91V32C110.72 38.57 115.9 43.95 122.91 43.95C129.92 43.95 135.23 38.48 135.23 31.91V31.82C135.23 25.21 130.05 19.82 123 19.82V19.83ZM129.97 31.99C129.97 35.97 127.27 39.3 123 39.3C118.73 39.3 115.99 35.93 115.99 31.9V31.81C115.99 27.78 118.69 24.45 122.91 24.45C127.13 24.45 129.96 27.82 129.96 31.89V31.98L129.97 31.99ZM80.82 39.3C76.77 39.3 73.94 36.02 73.94 31.9V31.81C73.94 27.78 76.77 24.45 80.6 24.45C83.21 24.45 84.91 25.68 86.52 27.34L89.83 23.79C87.65 21.43 84.95 19.81 80.65 19.81C73.73 19.81 68.68 25.33 68.68 31.89V31.98C68.68 38.55 73.73 43.93 80.56 43.93C85.04 43.93 87.7 42.13 89.96 39.6L86.78 36.45C85.08 38.16 83.3 39.3 80.82 39.3V39.3ZM205.47 29.76C202.77 28.88 200.29 28.18 200.29 26.48V26.39C200.29 25.12 201.47 24.11 203.51 24.11C205.43 24.11 207.78 24.94 210 26.3L212.09 22.53C209.65 20.91 206.52 19.9 203.65 19.9C199.08 19.9 195.47 22.57 195.47 26.99V27.08C195.47 31.46 199.26 32.86 202.65 33.82C205.35 34.65 207.79 35.26 207.79 37.06V37.15C207.79 38.68 206.48 39.65 204.22 39.65C201.96 39.65 199.21 38.69 196.69 36.8L194.34 40.39C197.21 42.71 200.83 43.85 204.09 43.85C208.88 43.85 212.62 41.44 212.62 36.58V36.49C212.62 32.33 208.83 30.8 205.48 29.75L205.47 29.76ZM153.06 19.81C149.49 19.81 147.36 21.69 145.88 23.84V20.29H140.57V43.41H145.88V30.36C145.88 26.77 148.01 24.63 151.06 24.63C154.11 24.63 155.98 26.69 155.98 30.28V43.41H161.25V28.66C161.25 23.32 158.25 19.82 153.07 19.82L153.06 19.81ZM178.63 19.82C171.58 19.82 166.35 25.29 166.35 31.9V31.99C166.35 38.56 171.53 43.94 178.54 43.94C185.55 43.94 190.86 38.47 190.86 31.9V31.81C190.86 25.2 185.68 19.81 178.63 19.81V19.82ZM185.6 31.98C185.6 35.96 182.9 39.29 178.63 39.29C174.36 39.29 171.62 35.92 171.62 31.89V31.8C171.62 27.77 174.32 24.44 178.54 24.44C182.76 24.44 185.59 27.81 185.59 31.88V31.97L185.6 31.98Z" fill="currentColor"/>
<path d="M25.83 0L0 15V45L25.83 60L51.66 45V15L25.83 0ZM43.84 31.66H37.17C36.68 35.11 34.65 38.19 31.58 39.96C28.02 42.03 23.63 42.03 20.07 39.96C16.54 37.91 14.36 34.13 14.36 30.05V29.94C14.36 25.86 16.53 22.08 20.06 20.03C23.62 17.96 28.01 17.96 31.57 20.03C34.63 21.81 36.67 24.89 37.15 28.33H43.82V31.66H43.84Z" fill="currentColor"/>
</g>
<defs>
<clipPath id="clip0_101_3">
<rect width="313.72" height="60" fill="white"/>
</clipPath>
</defs>
</svg>
